<svg xmlns="http://www.w3.org/2000/svg" viewBox="0 0 768 256"><path d="M84.2 138H74c-4.4 0-8-3.6-8-8V74c0-4.4 3.6-8 8-8h28.9c5.5 0 9.3 5.3 7.6 10.5l-18.7 56C90.7 135.8 87.7 138 84.2 138zM234 138h-10.2c-3.4 0-6.5-2.2-7.6-5.5l-18.7-56c-1.7-5.2 2.1-10.5 7.6-10.5H234c4.4 0 8 3.6 8 8v56C242 134.4 238.4 138 234 138z"/><path d="M223.8,142c-5.2,0-9.7-3.3-11.4-8.2L199.1,94h-90.2l-13.3,39.8c-1.6,4.9-6.2,8.2-11.4,8.2H82v40 c0,4.4,3.6,8,8,8h128c4.4,0,8-3.6,8-8v-40H223.8z M170,168c-7,0-13-4-16-9.8c-3,5.8-9,9.8-16,9.8c-1.1,0-2-0.9-2-2s0.9-2,2-2 c7.7,0,14-6.3,14-14c0-1.1,0.9-2,2-2s2,0.9,2,2c0,7.7,6.3,14,14,14c1.1,0,2,0.9,2,2S171.1,168,170,168z"/><path d="M368.4 129.9c0 19.4-12.4 33.6-33.2 33.6h-19.3V96.3h19.3C356 96.3 368.4 110.5 368.4 129.9zM359.7 129.9c0-14.3-8.6-25.9-25.1-25.9h-10.8v51.8h10.8C351.1 155.8 359.7 144.2 359.7 129.9zM423.3 140.8c0 13.3-10.8 23.9-24.3 23.9-13.5 0-24.3-10.6-24.3-23.9 0-13.4 10.8-23.9 24.3-23.9C412.5 116.9 423.3 127.3 423.3 140.8zM411.6 140.8c0-7.1-4.8-13.2-12.6-13.2s-12.6 6-12.6 13.2 4.8 13.2 12.6 13.2S411.6 147.9 411.6 140.8zM450.8 164.7c-11.8 0-22.2-9.9-22.2-23.9 0-14 10.4-23.9 22.2-23.9 9.5 0 13.7 7.1 13.7 7.1v-6h10.7v45.9c0 15.8-11.7 22.8-24.5 22.8-13.1 0-21.6-8.6-21.6-8.6l6.5-8.8c0 0 6.3 6.7 15.1 6.7 8.9 0 13-4.9 13-11.7v-5.5C462.2 160.7 458 164.7 450.8 164.7zM463.7 133.9c0 0-3.3-6.3-10.8-6.3-7.8 0-12.5 5.7-12.5 13.2 0 7.5 4.7 13.2 12.5 13.2 7.5 0 10.8-6.3 10.8-6.3V133.9zM488.1 96.3h22.8c13.3 0 22.3 9.2 22.3 21.5s-8.9 21.5-22.3 21.5h-11.3v24.2h-11.5V96.3zM521.5 117.8c0-6.3-4.1-10.6-12-10.6h-9.9v21.1h9.9C517.4 128.4 521.5 124.1 521.5 117.8zM578.3 134.3v29.2h-7.4v-6.4c0 0-5 7.6-15.1 7.6-8 0-16.5-5.6-16.5-15.2 0-8.6 7.6-14.8 17.6-14.8 8.2 0 13.3 3.6 13.3 3.6V136c0-9.2-7.7-10.5-11.2-10.5-6.7 0-13.2 3.7-13.2 3.7l-3.4-6.7c0 0 6.9-4.5 16.6-4.5C572.1 118 578.3 126.1 578.3 134.3zM570.3 150.8v-6.2c0 0-4.4-3.2-11.6-3.2-6.9 0-11.2 3.5-11.2 8.1 0 5.8 5.2 8.1 10.2 8.1C565.5 157.6 570.3 150.8 570.3 150.8zM616.9 119.2l-3 7.3c0 0-1.7-1-5.1-1-7 0-10.2 7.5-10.2 7.5v30.5h-8.1v-44.3h7.5v6.8c0 0 3.9-8 12.4-8C614.1 118 616.9 119.2 616.9 119.2zM633.1 142v21.5H625V90.9h8.1v47.9l19-19.7h10.6l-20.7 20.9 22.5 23.4h-11.2L633.1 142z"/></svg>
